<?xml version="1.0" encoding="UTF-8" standalone="no" ?>
<!DOCTYPE svg PUBLIC "-//W3C//DTD SVG 1.1//EN" "http://www.w3.org/Graphics/SVG/1.1/DTD/svg11.dtd">
<svg xmlns="http://www.w3.org/2000/svg" xmlns:xlink="http://www.w3.org/1999/xlink" version="1.1" width="1080" height="1080" viewBox="0 0 1080 1080" xml:space="preserve">
<desc>Created with Fabric.js 5.2.4</desc>
<defs>
</defs>
<g transform="matrix(1 0 0 1 540 540)" id="a8ba7062-eb72-456c-84bb-c91c097c85de"  >
<rect style="stroke: none; stroke-width: 1; stroke-dasharray: none; stroke-linecap: butt; stroke-dashoffset: 0; stroke-linejoin: miter; stroke-miterlimit: 4; fill: rgb(255,255,255); fill-rule: nonzero; opacity: 1; visibility: hidden;" vector-effect="non-scaling-stroke"  x="-540" y="-540" rx="0" ry="0" width="1080" height="1080" />
</g>
<g transform="matrix(1 0 0 1 540 540)" id="58f9c2e5-e284-498a-999e-663ec2fceda5"  >
</g>
<g transform="matrix(1 0 0 1 269.95 491.13)"  >
<path style="stroke: none; stroke-width: 1; stroke-dasharray: none; stroke-linecap: butt; stroke-dashoffset: 0; stroke-linejoin: miter; stroke-miterlimit: 4; fill: rgb(116,81,247); fill-rule: nonzero; opacity: 1;" vector-effect="non-scaling-stroke"  transform=" translate(-229.95, -110.22)" d="M 349.34 214 L 233.77 2.1 C 232.9390711238686 0.790433654734493 231.495937397138 -0.0030111248709898675 229.945 -0.0030111248709898675 C 228.39406260286202 -0.0030111248709898675 226.95092887613143 0.7904336547344926 226.12 2.1 L 177.77 90.68 L 195.2 90.68 L 230 27.05 L 327.13 205.05 L 132.82 205.05 L 179.32999999999998 119.79 L 161.9 119.79 L 110.55 214 C 109.81680487838845 215.35072357810927 109.8489077101116 216.98769907134374 110.63449697059406 218.30863767121502 C 111.42008623107651 219.6295762710863 112.84311066173001 220.43934217986376 114.38 220.44 L 345.52 220.44 C 347.05810732602174 220.43773561997386 348.4812249378197 219.62520857941925 349.26501909717706 218.30178650406458 C 350.0488132565344 216.9783644287099 350.0773062069272 215.339873635199 349.34 213.99 Z" stroke-linecap="round" />
</g>
<g transform="matrix(1 0 0 1 159.94 588.82)"  >
<path style="stroke: rgb(255,255,255); stroke-width: 1; stroke-dasharray: none; stroke-linecap: butt; stroke-dashoffset: 0; stroke-linejoin: miter; stroke-miterlimit: 4; fill: rgb(255,255,255); fill-rule: nonzero; opacity: 1;" vector-effect="non-scaling-stroke"  transform=" translate(-119.94, -207.91)" d="M 239.25 99.76 C 238.46765510721116 98.43372102118146 237.0398137142798 97.62270710999643 235.5 97.63000000000001 L 4.36 97.63000000000001 C 2.823214090519257 97.62422493501971 1.3990597289771673 98.43530749921347 0.6200000000000001 99.76 C -0.17894148348224093 101.07799179157374 -0.2094802381999692 102.72326720199133 0.5399999999999995 104.07000000000001 L 116.1 315.92 C 116.8648330920115 317.31801514707774 118.33144547940941 318.1873999426551 119.925 318.1873999426551 C 121.51855452059058 318.1873999426551 122.9851669079885 317.31801514707774 123.75 315.92 L 172.06 227.34000000000003 L 154.63 227.34000000000003 L 119.93 291 L 22.80000000000001 113 L 217.06 113 L 170.54 198.2 L 188 198.2 L 239.36 104.05999999999999 C 240.0902473964771 102.70900404652936 240.0483677820003 101.07189184425376 239.25 99.76 Z" stroke-linecap="round" />
</g>
<g transform="matrix(1 0 0 1 514 539.7)"  >
<polygon style="stroke: rgb(255,255,255); stroke-width: 1; stroke-dasharray: none; stroke-linecap: butt; stroke-dashoffset: 0; stroke-linejoin: miter; stroke-miterlimit: 4; fill: rgb(255,255,255); fill-rule: nonzero; opacity: 1;" vector-effect="non-scaling-stroke"  points="36.96,9.43 13.54,-61.49 -12.89,-61.49 -36.29,9.43 -57.9,-61.17 -92.03,-61.17 -50.43,61.48 -23.7,61.48 0,-7.24 23.71,61.48 50.44,61.48 92.03,-61.17 58.55,-61.17 36.96,9.43 " />
</g>
<g transform="matrix(1 0 0 1 688.32 539.45)"  >
<polygon style="stroke: rgb(255,255,255); stroke-width: 1; stroke-dasharray: none; stroke-linecap: butt; stroke-dashoffset: 0; stroke-linejoin: miter; stroke-miterlimit: 4; fill: rgb(255,255,255); fill-rule: nonzero; opacity: 1;" vector-effect="non-scaling-stroke"  points="-15.47,14.11 38.91,14.11 38.91,-14.95 -15.47,-14.95 -15.47,-31.84 46.32,-31.84 46.32,-60.92 -47.16,-60.92 -47.16,60.91 47.15,60.91 47.15,31.83 -15.47,31.83 -15.47,14.11 " />
</g>
<g transform="matrix(1 0 0 1 827.31 539.45)"  >
<polygon style="stroke: rgb(255,255,255); stroke-width: 1; stroke-dasharray: none; stroke-linecap: butt; stroke-dashoffset: 0; stroke-linejoin: miter; stroke-miterlimit: 4; fill: rgb(255,255,255); fill-rule: nonzero; opacity: 1;" vector-effect="non-scaling-stroke"  points="59.71,-60.92 22.96,-60.92 0.35,-26.24 -22.11,-60.92 -59.68,-60.92 -18.91,-1 -61.37,60.91 -24.6,60.91 -0.34,24.04 23.78,60.91 61.36,60.91 18.93,-1.32 59.71,-60.92 " />
</g>
<g transform="matrix(1 0 0 1 975.46 539.45)"  >
<path style="stroke: rgb(255,255,255); stroke-width: 1; stroke-dasharray: none; stroke-linecap: butt; stroke-dashoffset: 0; stroke-linejoin: miter; stroke-miterlimit: 4; fill: rgb(255,255,255); fill-rule: nonzero; opacity: 1;" vector-effect="non-scaling-stroke"  transform=" translate(-935.46, -158.54)" d="M 935.63 95.65 C 899.34 95.65 870.92 123.28 870.92 158.87 C 870.92 194.46 898.5999999999999 221.43 935.31 221.43 C 971.5899999999999 221.43 1000 193.81 1000 158.21 C 1000 122.61000000000001 972.33 95.65 935.63 95.65 Z M 967 158.87 C 967 177.49 953.53 191.53 935.67 191.53 C 917.67 191.53 903.99 177.35 903.99 158.21 C 903.99 139.59 917.48 125.55000000000001 935.35 125.55000000000001 C 953.35 125.55000000000001 967 139.74 967 158.55 Z" stroke-linecap="round" />
</g>
<g transform="matrix(1 0 0 1 207.69 506.11)"  >
<linearGradient id="SVGID_a_3" gradientUnits="userSpaceOnUse" gradientTransform="matrix(-1 0 0 -1 -761.63 453.91)"  x1="-761.63" y1="459.76" x2="-761.63" y2="448.73">
<stop offset="0%" style="stop-color:rgb(0,0,0);stop-opacity: 0.4"/>
<stop offset="63%" style="stop-color:rgb(28,35,37);stop-opacity: 0.1"/>
<stop offset="100%" style="stop-color:rgb(0,0,0);stop-opacity: 0"/>
</linearGradient>
<polygon style="stroke: none; stroke-width: 1; stroke-dasharray: none; stroke-linecap: butt; stroke-dashoffset: 0; stroke-linejoin: miter; stroke-miterlimit: 4; fill: url(#SVGID_a_3); fill-rule: nonzero; opacity: 1;" vector-effect="non-scaling-stroke"  points="-5.78,-5.36 -11.64,5.36 5.78,5.36 11.64,-5.36 -5.78,-5.36 " />
</g>
<g transform="matrix(1 0 0 1 200.42 613.63)"  >
<linearGradient id="SVGID_b_4" gradientUnits="userSpaceOnUse" gradientTransform="matrix(-1 0 0 -1 -754.36 346.39)"  x1="-754.35" y1="352.25" x2="-754.35" y2="341.22">
<stop offset="0%" style="stop-color:rgb(0,0,0);stop-opacity: 1"/>
<stop offset="48%" style="stop-color:rgb(28,35,37);stop-opacity: 0.1"/>
<stop offset="100%" style="stop-color:rgb(0,0,0);stop-opacity: 0"/>
</linearGradient>
<polygon style="stroke: none; stroke-width: 1; stroke-dasharray: none; stroke-linecap: butt; stroke-dashoffset: 0; stroke-linejoin: miter; stroke-miterlimit: 4; fill: url(#SVGID_b_4); fill-rule: nonzero; opacity: 1;" vector-effect="non-scaling-stroke"  points="-5.79,-5.37 -11.64,5.37 5.78,5.37 11.64,-5.37 -5.79,-5.37 " />
</g>
<g transform="matrix(1 0 0 1 222.16 573.73)"  >
<linearGradient id="SVGID_c_5" gradientUnits="userSpaceOnUse" gradientTransform="matrix(1 0 0 1 -179.89 -344.22)"  x1="179.89" y1="350.08" x2="179.89" y2="339.05">
<stop offset="0%" style="stop-color:rgb(0,0,0);stop-opacity: 1"/>
<stop offset="48%" style="stop-color:rgb(28,35,37);stop-opacity: 0.1"/>
<stop offset="100%" style="stop-color:rgb(0,0,0);stop-opacity: 0"/>
</linearGradient>
<polygon style="stroke: none; stroke-width: 1; stroke-dasharray: none; stroke-linecap: butt; stroke-dashoffset: 0; stroke-linejoin: miter; stroke-miterlimit: 4; fill: url(#SVGID_c_5); fill-rule: nonzero; opacity: 1;" vector-effect="non-scaling-stroke"  points="5.78,5.37 11.64,-5.37 -5.79,-5.37 -11.64,5.37 5.78,5.37 " />
</g>
<g transform="matrix(1 0 0 1 229.41 466.23)"  >
<linearGradient id="SVGID_d_6" gradientUnits="userSpaceOnUse" gradientTransform="matrix(1 0 0 1 -175.29 -271.2)"  x1="175.3" y1="277.06" x2="175.3" y2="266.03">
<stop offset="0%" style="stop-color:rgb(0,0,0);stop-opacity: 0.4"/>
<stop offset="64%" style="stop-color:rgb(28,35,37);stop-opacity: 0.1"/>
<stop offset="100%" style="stop-color:rgb(0,0,0);stop-opacity: 0"/>
</linearGradient>
<polygon style="stroke: none; stroke-width: 1; stroke-dasharray: none; stroke-linecap: butt; stroke-dashoffset: 0; stroke-linejoin: miter; stroke-miterlimit: 4; fill: url(#SVGID_d_6); fill-rule: nonzero; opacity: 1;" vector-effect="non-scaling-stroke"  points="5.79,5.37 11.64,-5.37 -5.78,-5.37 -11.64,5.37 5.79,5.37 " />
</g>
</svg>